<svg width="401" height="48" viewBox="0 0 401 48" fill="none" xmlns="http://www.w3.org/2000/svg">
<g filter="url(#filter0_d_116_3)">
<path d="M34.9473 25.1211H14.0762V18.4688H34.9473V25.1211ZM37.8926 10.1914H11.4355V40H4.83398V6.91602C4.83398 6.45898 4.91862 6.02734 5.08789 5.62109C5.25716 5.21484 5.48568 4.85938 5.77344 4.55469C6.07812 4.25 6.43359 4.01302 6.83984 3.84375C7.24609 3.67448 7.6862 3.58984 8.16016 3.58984H37.8926V10.1914ZM65.4922 19.1543H50.6387C49.7415 19.1543 49.0645 19.3828 48.6074 19.8398C48.1504 20.2799 47.9219 20.9316 47.9219 21.7949V40H41.3203V21.7949C41.3203 20.6608 41.4642 19.6452 41.752 18.748C42.0397 17.8509 42.4206 17.0638 42.8945 16.3867C43.3854 15.6927 43.944 15.1087 44.5703 14.6348C45.1966 14.1439 45.8483 13.7461 46.5254 13.4414C47.2194 13.1367 47.9134 12.9167 48.6074 12.7812C49.3184 12.6289 49.9785 12.5527 50.5879 12.5527H65.4922V19.1543ZM96.0625 30.9102C96.0625 31.8242 95.9017 32.8145 95.5801 33.8809C95.2585 34.9303 94.7337 35.9121 94.0059 36.8262C93.2949 37.7233 92.3555 38.4766 91.1875 39.0859C90.0365 39.6953 88.6315 40 86.9727 40H75.0645C74.1504 40 73.1602 39.8392 72.0938 39.5176C71.0443 39.196 70.0625 38.6797 69.1484 37.9688C68.2513 37.2409 67.498 36.3014 66.8887 35.1504C66.2793 33.9824 65.9746 32.569 65.9746 30.9102C65.9746 29.9961 66.1354 29.0059 66.457 27.9395C66.7786 26.873 67.2949 25.8913 68.0059 24.9941C68.7337 24.0801 69.6732 23.3184 70.8242 22.709C71.9922 22.0996 73.4056 21.7949 75.0645 21.7949H86.9727V28.0918H75.0645C74.1673 28.0918 73.4733 28.3711 72.9824 28.9297C72.4915 29.4714 72.2461 30.1484 72.2461 30.9609C72.2461 31.8242 72.5254 32.5013 73.084 32.9922C73.6595 33.4661 74.3366 33.7031 75.1152 33.7031H86.9727C87.8698 33.7031 88.5638 33.4323 89.0547 32.8906C89.5456 32.349 89.791 31.6719 89.791 30.8594V21.6426C89.791 20.7793 89.5202 20.0938 88.9785 19.5859C88.4538 19.0781 87.7852 18.8242 86.9727 18.8242H72.4746V12.5527H86.9727C87.8867 12.5527 88.8685 12.7135 89.918 13.0352C90.9844 13.3568 91.9661 13.8815 92.8633 14.6094C93.7773 15.3203 94.5391 16.2598 95.1484 17.4277C95.7578 18.5788 96.0625 19.9837 96.0625 21.6426V30.9102ZM128.283 40H110.383C109.469 40 108.47 39.8392 107.387 39.5176C106.303 39.196 105.296 38.6712 104.365 37.9434C103.451 37.1986 102.681 36.2422 102.055 35.0742C101.445 33.8893 101.141 32.4421 101.141 30.7324V21.7949C101.141 21.1686 101.208 20.5085 101.344 19.8145C101.496 19.1204 101.725 18.4349 102.029 17.7578C102.334 17.0638 102.723 16.4036 103.197 15.7773C103.688 15.151 104.272 14.6009 104.949 14.127C105.643 13.653 106.439 13.2721 107.336 12.9844C108.233 12.6966 109.249 12.5527 110.383 12.5527H128.283V19.1543H110.383C109.52 19.1543 108.859 19.3743 108.402 19.8145C107.962 20.2546 107.742 20.9316 107.742 21.8457V30.7324C107.742 31.5957 107.971 32.2559 108.428 32.7129C108.885 33.1699 109.553 33.3984 110.434 33.3984H128.283V40ZM158.701 19.1543H147.174V40H140.496V19.1543H131.914V12.5527H140.496V3.58984H147.174V12.5527H158.701V19.1543ZM189.805 30.9102C189.805 31.8242 189.644 32.8145 189.322 33.8809C189.001 34.9303 188.476 35.9121 187.748 36.8262C187.037 37.7233 186.098 38.4766 184.93 39.0859C183.779 39.6953 182.374 40 180.715 40H168.807C167.893 40 166.902 39.8392 165.836 39.5176C164.786 39.196 163.805 38.6797 162.891 37.9688C161.993 37.2409 161.24 36.3014 160.631 35.1504C160.021 33.9824 159.717 32.569 159.717 30.9102C159.717 29.9961 159.878 29.0059 160.199 27.9395C160.521 26.873 161.037 25.8913 161.748 24.9941C162.476 24.0801 163.415 23.3184 164.566 22.709C165.734 22.0996 167.148 21.7949 168.807 21.7949H180.715V28.0918H168.807C167.91 28.0918 167.215 28.3711 166.725 28.9297C166.234 29.4714 165.988 30.1484 165.988 30.9609C165.988 31.8242 166.268 32.5013 166.826 32.9922C167.402 33.4661 168.079 33.7031 168.857 33.7031H180.715C181.612 33.7031 182.306 33.4323 182.797 32.8906C183.288 32.349 183.533 31.6719 183.533 30.8594V21.6426C183.533 20.7793 183.262 20.0938 182.721 19.5859C182.196 19.0781 181.527 18.8242 180.715 18.8242H166.217V12.5527H180.715C181.629 12.5527 182.611 12.7135 183.66 13.0352C184.727 13.3568 185.708 13.8815 186.605 14.6094C187.52 15.3203 188.281 16.2598 188.891 17.4277C189.5 18.5788 189.805 19.9837 189.805 21.6426V30.9102ZM207.502 40H204.557C203.609 40 202.593 39.8392 201.51 39.5176C200.443 39.196 199.445 38.6712 198.514 37.9434C197.583 37.1986 196.812 36.2422 196.203 35.0742C195.594 33.8893 195.289 32.4421 195.289 30.7324V0.949219H201.891V30.7324C201.891 31.5449 202.145 32.1966 202.652 32.6875C203.16 33.1615 203.795 33.3984 204.557 33.3984H207.502V40ZM265.367 32.002C265.367 32.8145 265.223 33.6862 264.936 34.6172C264.665 35.5482 264.208 36.4115 263.564 37.207C262.938 38.0026 262.117 38.6712 261.102 39.2129C260.086 39.7376 258.842 40 257.369 40H232.309C231.835 40 231.395 39.9154 230.988 39.7461C230.582 39.5768 230.227 39.3483 229.922 39.0605C229.634 38.7559 229.406 38.4004 229.236 37.9941C229.067 37.5879 228.982 37.1478 228.982 36.6738V6.91602C228.982 6.45898 229.067 6.02734 229.236 5.62109C229.406 5.21484 229.634 4.85938 229.922 4.55469C230.227 4.25 230.582 4.01302 230.988 3.84375C231.395 3.67448 231.835 3.58984 232.309 3.58984H254.398C255.211 3.58984 256.083 3.73372 257.014 4.02148C257.945 4.30924 258.808 4.77474 259.604 5.41797C260.416 6.04427 261.085 6.86523 261.609 7.88086C262.151 8.89648 262.422 10.1406 262.422 11.6133V12.8574C262.422 14.0254 262.227 15.2865 261.838 16.6406C261.449 17.9779 260.822 19.2474 259.959 20.4492C260.704 20.9062 261.398 21.4564 262.041 22.0996C262.701 22.7428 263.277 23.4876 263.768 24.334C264.258 25.1803 264.648 26.1367 264.936 27.2031C265.223 28.2695 265.367 29.446 265.367 30.7324V32.002ZM258.766 30.7324C258.766 29.8691 258.63 29.099 258.359 28.4219C258.089 27.7279 257.708 27.1354 257.217 26.6445C256.726 26.1536 256.133 25.7812 255.439 25.5273C254.745 25.2565 253.967 25.1211 253.104 25.1211H238.225V18.4688H250.133C250.996 18.4688 251.775 18.3418 252.469 18.0879C253.163 17.8171 253.755 17.4362 254.246 16.9453C254.737 16.4544 255.109 15.8704 255.363 15.1934C255.634 14.4993 255.77 13.7207 255.77 12.8574V11.6133C255.77 10.6654 255.312 10.1914 254.398 10.1914H235.584V33.3984H257.369C257.488 33.3984 257.632 33.39 257.801 33.373C257.97 33.3561 258.122 33.3053 258.258 33.2207C258.393 33.1361 258.512 32.9922 258.613 32.7891C258.715 32.5859 258.766 32.3066 258.766 31.9512V30.7324ZM298.73 30.9102C298.73 31.8242 298.57 32.8145 298.248 33.8809C297.926 34.9303 297.402 35.9121 296.674 36.8262C295.963 37.7233 295.023 38.4766 293.855 39.0859C292.704 39.6953 291.299 40 289.641 40H277.732C276.818 40 275.828 39.8392 274.762 39.5176C273.712 39.196 272.73 38.6797 271.816 37.9688C270.919 37.2409 270.166 36.3014 269.557 35.1504C268.947 33.9824 268.643 32.569 268.643 30.9102C268.643 29.9961 268.803 29.0059 269.125 27.9395C269.447 26.873 269.963 25.8913 270.674 24.9941C271.402 24.0801 272.341 23.3184 273.492 22.709C274.66 22.0996 276.074 21.7949 277.732 21.7949H289.641V28.0918H277.732C276.835 28.0918 276.141 28.3711 275.65 28.9297C275.16 29.4714 274.914 30.1484 274.914 30.9609C274.914 31.8242 275.193 32.5013 275.752 32.9922C276.327 33.4661 277.005 33.7031 277.783 33.7031H289.641C290.538 33.7031 291.232 33.4323 291.723 32.8906C292.214 32.349 292.459 31.6719 292.459 30.8594V21.6426C292.459 20.7793 292.188 20.0938 291.646 19.5859C291.122 19.0781 290.453 18.8242 289.641 18.8242H275.143V12.5527H289.641C290.555 12.5527 291.536 12.7135 292.586 13.0352C293.652 13.3568 294.634 13.8815 295.531 14.6094C296.445 15.3203 297.207 16.2598 297.816 17.4277C298.426 18.5788 298.73 19.9837 298.73 21.6426V30.9102ZM330.9 30.7324C330.9 31.8665 330.757 32.8906 330.469 33.8047C330.181 34.7018 329.8 35.4974 329.326 36.1914C328.852 36.8685 328.302 37.4525 327.676 37.9434C327.049 38.4173 326.389 38.8066 325.695 39.1113C325.018 39.416 324.324 39.6445 323.613 39.7969C322.919 39.9323 322.259 40 321.633 40H303.758V33.3984H321.582C322.479 33.3984 323.156 33.1699 323.613 32.7129C324.07 32.2559 324.299 31.5957 324.299 30.7324C324.214 28.972 323.326 28.0918 321.633 28.0918H311.4C309.945 28.0918 308.709 27.8379 307.693 27.3301C306.678 26.8223 305.848 26.1875 305.205 25.4258C304.579 24.6641 304.122 23.8431 303.834 22.9629C303.563 22.0827 303.428 21.2617 303.428 20.5C303.428 19.0273 303.69 17.7917 304.215 16.793C304.74 15.7773 305.4 14.9564 306.195 14.3301C306.991 13.7038 307.854 13.2552 308.785 12.9844C309.716 12.6966 310.588 12.5527 311.4 12.5527H327.625V19.1543H311.451C311.113 19.1543 310.842 19.1966 310.639 19.2812C310.452 19.349 310.309 19.4505 310.207 19.5859C310.122 19.7044 310.072 19.8398 310.055 19.9922C310.038 20.1276 310.029 20.263 310.029 20.3984C310.046 20.6693 310.097 20.8809 310.182 21.0332C310.266 21.1855 310.368 21.2956 310.486 21.3633C310.622 21.431 310.766 21.4733 310.918 21.4902C311.087 21.4902 311.248 21.4902 311.4 21.4902H321.633C323.326 21.4902 324.764 21.7949 325.949 22.4043C327.134 23.0137 328.09 23.7839 328.818 24.7148C329.546 25.6289 330.071 26.6276 330.393 27.7109C330.731 28.7943 330.9 29.8014 330.9 30.7324ZM365.076 21.6426C365.076 22.5566 364.915 23.5469 364.594 24.6133C364.272 25.6628 363.747 26.6445 363.02 27.5586C362.309 28.4557 361.369 29.209 360.201 29.8184C359.05 30.4277 357.645 30.7324 355.986 30.7324H344.078V24.4609H355.986C356.883 24.4609 357.577 24.1901 358.068 23.6484C358.559 23.0898 358.805 22.4043 358.805 21.5918C358.805 20.7285 358.525 20.0514 357.967 19.5605C357.425 19.0697 356.765 18.8242 355.986 18.8242H344.078C343.181 18.8242 342.487 19.1035 341.996 19.6621C341.505 20.2038 341.26 20.8809 341.26 21.6934V30.9102C341.26 31.7904 341.531 32.4759 342.072 32.9668C342.631 33.4577 343.316 33.7031 344.129 33.7031H355.986V40H344.078C343.164 40 342.174 39.8392 341.107 39.5176C340.058 39.196 339.076 38.6797 338.162 37.9688C337.265 37.2409 336.512 36.3014 335.902 35.1504C335.293 33.9824 334.988 32.569 334.988 30.9102V21.6426C334.988 20.7285 335.149 19.7467 335.471 18.6973C335.792 17.6309 336.309 16.6491 337.02 15.752C337.747 14.8379 338.687 14.0762 339.838 13.4668C341.006 12.8574 342.419 12.5527 344.078 12.5527H355.986C356.9 12.5527 357.882 12.7135 358.932 13.0352C359.998 13.3568 360.98 13.8815 361.877 14.6094C362.791 15.3203 363.553 16.2598 364.162 17.4277C364.771 18.5788 365.076 19.9837 365.076 21.6426ZM396.053 30.7324C396.053 31.8665 395.909 32.8906 395.621 33.8047C395.333 34.7018 394.952 35.4974 394.479 36.1914C394.005 36.8685 393.454 37.4525 392.828 37.9434C392.202 38.4173 391.542 38.8066 390.848 39.1113C390.171 39.416 389.477 39.6445 388.766 39.7969C388.072 39.9323 387.411 40 386.785 40H368.91V33.3984H386.734C387.632 33.3984 388.309 33.1699 388.766 32.7129C389.223 32.2559 389.451 31.5957 389.451 30.7324C389.367 28.972 388.478 28.0918 386.785 28.0918H376.553C375.097 28.0918 373.861 27.8379 372.846 27.3301C371.83 26.8223 371.001 26.1875 370.357 25.4258C369.731 24.6641 369.274 23.8431 368.986 22.9629C368.715 22.0827 368.58 21.2617 368.58 20.5C368.58 19.0273 368.842 17.7917 369.367 16.793C369.892 15.7773 370.552 14.9564 371.348 14.3301C372.143 13.7038 373.007 13.2552 373.938 12.9844C374.868 12.6966 375.74 12.5527 376.553 12.5527H392.777V19.1543H376.604C376.265 19.1543 375.994 19.1966 375.791 19.2812C375.605 19.349 375.461 19.4505 375.359 19.5859C375.275 19.7044 375.224 19.8398 375.207 19.9922C375.19 20.1276 375.182 20.263 375.182 20.3984C375.199 20.6693 375.249 20.8809 375.334 21.0332C375.419 21.1855 375.52 21.2956 375.639 21.3633C375.774 21.431 375.918 21.4733 376.07 21.4902C376.24 21.4902 376.4 21.4902 376.553 21.4902H386.785C388.478 21.4902 389.917 21.7949 391.102 22.4043C392.286 23.0137 393.243 23.7839 393.971 24.7148C394.699 25.6289 395.223 26.6276 395.545 27.7109C395.883 28.7943 396.053 29.8014 396.053 30.7324Z" fill="white"/>
</g>
<defs>
<filter id="filter0_d_116_3" x="0.833984" y="0.949219" width="399.219" height="47.0508" filterUnits="userSpaceOnUse" color-interpolation-filters="sRGB">
<feFlood flood-opacity="0" result="BackgroundImageFix"/>
<feColorMatrix in="SourceAlpha" type="matrix" values="0 0 0 0 0 0 0 0 0 0 0 0 0 0 0 0 0 0 127 0" result="hardAlpha"/>
<feOffset dy="4"/>
<feGaussianBlur stdDeviation="2"/>
<feComposite in2="hardAlpha" operator="out"/>
<feColorMatrix type="matrix" values="0 0 0 0 0 0 0 0 0 0 0 0 0 0 0 0 0 0 0.25 0"/>
<feBlend mode="normal" in2="BackgroundImageFix" result="effect1_dropShadow_116_3"/>
<feBlend mode="normal" in="SourceGraphic" in2="effect1_dropShadow_116_3" result="shape"/>
</filter>
</defs>
</svg>
